<?xml version="1.0" standalone="no"?>
<!DOCTYPE svg PUBLIC "-//W3C//DTD SVG 20010904//EN"
 "http://www.w3.org/TR/2001/REC-SVG-20010904/DTD/svg10.dtd">
<svg version="1.0" xmlns="http://www.w3.org/2000/svg"
 width="1354.000000pt" height="530.000000pt" viewBox="0 0 1354.000000 530.000000"
 preserveAspectRatio="xMidYMid meet">

<g transform="translate(0.000000,530.000000) scale(0.100000,-0.100000)"
fill="#000000" stroke="none">
<path d="M3690 5222 c0 -138 58 -291 171 -452 29 -41 144 -168 256 -281 189
-191 203 -208 203 -242 0 -62 -29 -257 -55 -377 -32 -143 -25 -190 40 -283 40
-58 209 -328 267 -427 15 -25 40 -60 57 -77 16 -18 50 -59 75 -92 l46 -59 -88
-174 c-79 -154 -186 -339 -262 -453 -19 -28 -27 -54 -29 -87 -1 -50 -74 -353
-96 -403 -16 -35 -44 -122 -50 -155 -7 -38 -306 -649 -335 -685 -4 -5 -41 -75
-82 -155 -41 -80 -85 -161 -96 -180 -21 -34 -22 -45 -22 -337 l0 -303 4925 0
4925 0 0 2650 0 2650 -4925 0 -4925 0 0 -78z"/>
</g>
</svg>
